<?xml version="1.0" standalone="no"?>
<!DOCTYPE svg PUBLIC "-//W3C//DTD SVG 20010904//EN"
 "http://www.w3.org/TR/2001/REC-SVG-20010904/DTD/svg10.dtd">
<svg version="1.0" xmlns="http://www.w3.org/2000/svg"
 width="512.000000pt" height="512.000000pt" viewBox="0 0 512.000000 512.000000"
 preserveAspectRatio="xMidYMid meet">
<metadata>
Created by potrace 1.14, written by Peter Selinger 2001-2017
</metadata>
<g transform="translate(0.000000,512.000000) scale(0.100000,-0.100000)"
fill="#000000" stroke="none">
<path d="M2680 4540 l0 -80 -330 0 -330 0 0 -105 0 -105 -220 0 -220 0 0 -115
0 -115 -115 0 -115 0 0 -110 0 -110 -105 0 -105 0 0 -110 0 -110 -115 0 -115
0 0 -110 0 -110 -105 0 -105 0 0 -110 0 -110 -115 0 -115 0 0 -225 0 -225
-110 0 -110 0 0 -335 0 -335 115 0 115 0 0 225 0 225 115 0 115 0 0 220 0 220
105 0 105 0 0 105 0 105 115 0 115 0 0 115 0 115 110 0 110 0 0 105 0 105 110
0 110 0 0 115 0 115 220 0 220 0 0 110 0 110 330 0 330 0 0 -105 0 -105 -225
0 -225 0 0 -110 0 -110 -225 0 -225 0 0 -670 0 -670 115 0 115 0 0 -220 0
-220 110 0 110 0 0 -220 0 -220 110 0 110 0 0 -110 0 -110 110 0 110 0 0 -115
0 -115 220 0 220 0 0 -105 0 -105 120 0 120 0 0 -110 0 -110 105 0 105 0 0
110 0 110 -105 0 -105 0 0 225 0 225 -115 0 -115 0 0 330 0 330 335 0 335 0 0
435 0 435 105 0 105 0 0 -545 0 -545 -105 0 -105 0 0 -115 0 -115 215 0 214 0
3 112 3 113 108 3 107 3 0 109 0 110 115 0 115 0 0 110 0 110 105 0 105 0 0
660 0 660 -105 0 -105 0 0 220 0 220 -110 0 -110 0 0 335 0 335 -220 0 -220 0
0 80 0 80 -670 0 -670 0 0 -80z"/>
</g>
</svg>
